<?xml version="1.0" encoding="utf-8"?>
<!-- Generator: Adobe Illustrator 23.1.0, SVG Export Plug-In . SVG Version: 6.00 Build 0)  -->
<svg version="1.1" id="Layer_1" xmlns="http://www.w3.org/2000/svg" xmlns:xlink="http://www.w3.org/1999/xlink" x="0px" y="0px"
	 viewBox="0 0 1409.68 337.53" style="enable-background:new 0 0 1409.68 337.53;" xml:space="preserve">
<style type="text/css">
	.st0{fill-rule:evenodd;clip-rule:evenodd;fill:#FFFFFF;}
	.st1{fill-rule:evenodd;clip-rule:evenodd;fill:#FF7373;}
	.st2{fill-rule:evenodd;clip-rule:evenodd;fill:#2A2C37;}
	.st3{fill:none;}
	.st4{fill:#2A2C37;}
	.st5{font-family:'Helvetica-Bold';}
	.st6{font-size:158px;}
	.st7{font-family:'Helvetica-Light';}
	.st8{font-size:167px;}
	.st9{letter-spacing:3;}
</style>
<polygon class="st0" points="3058.58,-1625 5558.58,-1625 8058.58,-1625 8058.58,1625 5558.58,1625 3058.58,1625 "/>
<path class="st1" d="M179.05,111.59c7.18,0,13.01,5.82,13.01,13.01c0,7.18-5.82,13.01-13.01,13.01c-7.18,0-13-5.82-13-13.01
	C166.05,117.41,171.87,111.59,179.05,111.59 M124.64,139.82v108.46h108.83v-75.45l-54.41,54.41l-47.34-47.35l18.02-18.02
	l29.33,29.33l54.31-54.31l18.08-18.08l24.22-24.22l18.02,18.02l-34.74,34.74v114.92c0,6.34-5.04,11.49-11.25,11.49H110.41
	c-6.22,0-11.25-5.14-11.25-11.49V139.35c0-0.26,0.01-0.53,0.03-0.79v-8.06c0-3.94,1.94-7.41,4.89-9.48l67.81-61.33
	c4.26-3.62,10.37-3.47,14.44,0.09l56.13,51.43l-9.1,9.1l-8.98,8.98l-45.33-41.17l-54.39,48.84v2.45L124.64,139.82z"/>
<path class="st2" d="M5383.53,853.13l76.64-78.2h-26.07L5331.4,881.74V774.93h-20.18v178.85h20.18v-48.05l38.06-38.56l68.75,86.62
	h25.28L5383.53,853.13z M5275.97,925.43l-13.28-13.03c-8.52,8.16-17.21,14.54-26.07,19.05c-8.84,4.51-19.41,6.77-31.69,6.77
	c-9.88,0-19.01-1.93-27.46-5.76c-8.42-3.83-15.75-9.06-21.97-15.72c-6.21-6.62-11.06-14.47-14.55-23.49
	c-3.49-9.02-5.23-18.73-5.23-29.11c0-10.42,1.74-20.09,5.23-29c3.49-8.95,8.34-16.76,14.55-23.38c6.21-6.66,13.55-11.85,21.97-15.61
	c8.45-3.72,17.58-5.58,27.46-5.58c12.28,0,22.79,2.29,31.56,6.87c8.77,4.62,16.99,10.49,24.65,17.62l13.79-14.79
	c-4.4-4.26-9.02-8.13-13.79-11.64c-4.76-3.47-9.96-6.48-15.58-8.95c-5.62-2.47-11.71-4.37-18.26-5.73
	c-6.57-1.36-13.93-2.04-22.11-2.04c-13.12,0-25.21,2.4-36.29,7.27c-11.06,4.87-20.61,11.49-28.61,19.91
	c-8,8.45-14.25,18.3-18.78,29.54c-4.51,11.24-6.77,23.24-6.77,36.02c0,12.93,2.26,25.03,6.77,36.27
	c4.53,11.24,10.78,20.98,18.78,29.25c8,8.27,17.46,14.79,28.36,19.55c10.9,4.76,22.83,7.16,35.77,7.16c8.16,0,15.58-0.79,22.24-2.33
	c6.62-1.54,12.85-3.65,18.66-6.37c5.76-2.72,11.19-6.02,16.22-9.85C5266.55,934.49,5271.35,930.19,5275.97,925.43z M5080.77,774.93
	h-129.28v178.85h130.55v-18.4h-110.36v-62.59h97.59v-18.4h-97.59v-61.05h109.08V774.93z M4880.74,873.29v80.49h20.16V774.93h-20.16
	v79.46h-103.23v-79.46h-20.2v178.85h20.2v-80.49H4880.74z M4722.06,925.43l-13.28-13.03c-8.5,8.16-17.21,14.54-26.05,19.05
	c-8.86,4.51-19.42,6.77-31.69,6.77c-9.87,0-19.03-1.93-27.46-5.76c-8.43-3.83-15.75-9.06-21.98-15.72
	c-6.21-6.62-11.06-14.47-14.55-23.49c-3.49-9.02-5.24-18.73-5.24-29.11c0-10.42,1.75-20.09,5.24-29
	c3.49-8.95,8.34-16.76,14.55-23.38c6.22-6.66,13.54-11.85,21.98-15.61c8.43-3.72,17.6-5.58,27.46-5.58
	c12.26,0,22.77,2.29,31.54,6.87c8.77,4.62,17.01,10.49,24.67,17.62l13.79-14.79c-4.42-4.26-9.02-8.13-13.79-11.64
	c-4.78-3.47-9.97-6.48-15.59-8.95c-5.62-2.47-11.71-4.37-18.26-5.73c-6.57-1.36-13.93-2.04-22.11-2.04c-13.12,0-25.2,2.4-36.27,7.27
	c-11.07,4.87-20.62,11.49-28.62,19.91c-8,8.45-14.26,18.3-18.78,29.54c-4.51,11.24-6.77,23.24-6.77,36.02
	c0,12.93,2.26,25.03,6.77,36.27c4.52,11.24,10.78,20.98,18.78,29.25c8,8.27,17.46,14.79,28.36,19.55
	c10.9,4.76,22.84,7.16,35.78,7.16c8.16,0,15.58-0.79,22.22-2.33c6.64-1.54,12.87-3.65,18.66-6.37c5.78-2.72,11.19-6.02,16.22-9.85
	C4712.66,934.49,4717.46,930.19,4722.06,925.43z M4529.69,953.79v-35.02h-97.1v-37.53h84.32v-35.02h-84.32v-36.27h95.82v-35.02
	h-134.64v178.85H4529.69z M4362.34,924.93l-25.04-25.32c-6.98,6.48-14.01,11.6-21.08,15.33c-7.07,3.76-15.71,5.62-25.93,5.62
	c-7.66,0-14.69-1.47-21.07-4.48c-6.39-2.97-11.84-7.02-16.35-12.1c-4.51-5.12-8.05-11.1-10.6-17.9c-2.56-6.8-3.83-14.04-3.83-21.7
	v-0.54c0-7.66,1.27-14.86,3.83-21.59c2.55-6.73,6.13-12.64,10.72-17.76c4.6-5.09,10.1-9.09,16.48-12c6.39-2.9,13.33-4.33,20.82-4.33
	c9.03,0,17.16,1.79,24.4,5.37c7.24,3.58,14.35,8.52,21.33,14.82l25.04-28.9c-4.09-4.08-8.51-7.84-13.28-11.24
	c-4.76-3.4-9.96-6.3-15.58-8.67c-5.62-2.4-11.88-4.26-18.78-5.62c-6.9-1.36-14.52-2.04-22.86-2.04c-13.79,0-26.4,2.4-37.81,7.27
	c-11.41,4.87-21.21,11.49-29.38,19.91c-8.18,8.45-14.57,18.26-19.17,29.4c-4.6,11.17-6.9,23.13-6.9,35.91v0.5
	c0,12.78,2.3,24.78,6.9,36.02c4.59,11.24,10.98,20.98,19.17,29.25c8.17,8.27,17.88,14.79,29.12,19.55
	c11.24,4.76,23.43,7.16,36.54,7.16c8.68,0,16.52-0.75,23.51-2.18c6.98-1.43,13.41-3.58,19.28-6.37c5.88-2.83,11.29-6.19,16.23-10.1
	C4352.96,934.27,4357.74,929.87,4362.34,924.93z M4160.5,953.79V774.93h-39.35v178.85H4160.5z M4044,836.52
	c0,7.66-2.6,13.79-7.8,18.4c-5.19,4.58-12.65,6.88-22.35,6.88H3974v-51.35h39.09c9.7,0,17.29,2.15,22.73,6.37
	c5.45,4.26,8.18,10.67,8.18,19.19V836.52z M4089.22,953.79l-43.69-63.88c11.41-4.26,20.65-10.96,27.72-20.05
	c7.07-9.13,10.6-20.91,10.6-35.38v-0.54c0-18.55-5.92-33.01-17.75-43.4c-11.84-10.42-28.4-15.61-49.69-15.61h-81.75v178.85H3974
	v-57.22h30.91l38.32,57.22H4089.22z M3865.66,838.06c0,7.66-2.72,14.07-8.17,19.26c-5.45,5.19-13.11,7.81-23,7.81h-31.16v-54.68
	h30.4c9.87,0,17.66,2.29,23.37,6.91c5.7,4.58,8.56,11.32,8.56,20.16V838.06z M3905.53,837.27v-0.5c0-9.2-1.58-17.58-4.74-25.17
	c-3.15-7.59-7.66-14.11-13.54-19.55c-5.88-5.44-13.02-9.67-21.47-12.64c-8.42-2.97-18.01-4.48-28.74-4.48h-73.07v178.85h39.35
	v-53.64h29.89c10.04,0,19.46-1.33,28.22-3.97c8.77-2.65,16.44-6.59,23-11.89c6.56-5.26,11.71-11.82,15.46-19.66
	S3905.53,847.66,3905.53,837.27z"/>
<path class="st2" d="M5052,982.47h-87.8v121.46h88.66v-12.5h-74.94v-42.5h66.28v-12.5h-66.28v-41.46H5052V982.47z M4882.13,1087.09
	l-43.18-104.63h-15.29l52.24,122.31h12.14l52.22-122.31h-14.73L4882.13,1087.09z M4784.81,982.47v121.46h13.71V982.47H4784.81z
	 M4716.97,995.14h40.77v-12.67h-95.25v12.67h40.78v108.78h13.7V995.14z M4628.5,1059.67h-55.35l27.76-61.95L4628.5,1059.67z
	 M4607.5,981.61h-12.84l-55.34,122.31h14.05l14.39-32.12h66.1l14.23,32.12h14.75L4607.5,981.61z M4521.27,982.47h-87.79v121.46
	h88.66v-12.5h-74.95v-42.5h66.28v-12.5h-66.28v-41.46h74.08V982.47z M4390.45,1019.35c0,3.9-0.78,7.48-2.34,10.6
	c-1.56,3.15-3.72,5.77-6.53,7.91c-2.77,2.15-6.08,3.83-9.92,4.98c-3.82,1.15-7.99,1.72-12.52,1.72h-37.38v-49.41h37.55
	c9.86,0,17.53,2.11,22.96,6.34C4387.74,1005.71,4390.45,1011.65,4390.45,1019.35z M4408.5,1103.92l-37.3-49.59
	c4.74-0.82,9.14-2.22,13.19-4.19c4.05-1.97,7.55-4.4,10.49-7.38c2.95-2.94,5.24-6.41,6.86-10.38c1.62-4.01,2.43-8.52,2.43-13.64
	c0-5.41-1.05-10.38-3.12-14.86c-2.09-4.44-5.04-8.27-8.85-11.46c-3.81-3.15-8.41-5.62-13.79-7.38c-5.37-1.72-11.42-2.58-18.13-2.58
	h-52.22v121.46h13.71v-47.19h34.69l35.22,47.19H4408.5z M4284.11,1084.66l-9.02-8.84c-5.78,5.55-11.68,9.85-17.7,12.93
	c-6.02,3.04-13.19,4.58-21.51,4.58c-6.71,0-12.93-1.29-18.66-3.9c-5.73-2.61-10.7-6.16-14.91-10.67c-4.23-4.51-7.53-9.85-9.89-15.97
	c-2.37-6.12-3.56-12.71-3.56-19.77s1.19-13.61,3.56-19.69c2.36-6.09,5.66-11.35,9.89-15.86c4.22-4.51,9.18-8.06,14.91-10.6
	c5.72-2.54,11.94-3.83,18.66-3.83c8.33,0,15.46,1.58,21.42,4.69c5.96,3.12,11.54,7.13,16.75,12l9.36-10.1
	c-3.01-2.86-6.13-5.51-9.36-7.88c-3.25-2.36-6.77-4.4-10.59-6.09c-3.82-1.65-7.95-2.97-12.41-3.9c-4.45-0.89-9.45-1.36-15-1.36
	c-8.91,0-17.12,1.65-24.63,4.94c-7.52,3.29-14,7.81-19.43,13.53c-5.43,5.73-9.69,12.39-12.76,20.02
	c-3.06,7.66-4.59,15.79-4.59,24.49c0,8.77,1.53,17.01,4.59,24.63c3.07,7.63,7.32,14.25,12.76,19.84
	c5.43,5.62,11.86,10.06,19.25,13.28c7.41,3.22,15.5,4.87,24.29,4.87c5.55,0,10.58-0.54,15.09-1.58s8.73-2.47,12.67-4.33
	c3.93-1.86,7.6-4.08,11.02-6.7C4277.72,1090.82,4280.98,1087.88,4284.11,1084.66z"/>
<rect x="273.87" y="-1197.12" class="st3" width="1709.24" height="151.58"/>
<text transform="matrix(1 0 0 1 273.8729 -1076.8812)"><tspan x="0" y="0" class="st5 st6">SHOPPING</tspan><tspan x="834.05" y="0" class="st7 st8 st9">SAVINGS</tspan></text>
<rect x="343.14" y="124.59" class="st3" width="993.86" height="151.58"/>
<text transform="matrix(1 0 0 1 343.1356 244.8305)"><tspan x="0" y="0" class="st4 st5 st6">SHOP&amp;</tspan><tspan x="561.87" y="0" class="st4 st7 st8 st9">SAVE</tspan></text>
<rect x="242.82" y="-963.02" class="st3" width="1709.24" height="151.58"/>
<text transform="matrix(1 0 0 1 242.8202 -818.0333)"><tspan x="0" y="0" class="st5 st6">SHOP</tspan><tspan x="447.77" y="0" style="fill:#FF7373; font-family:'Geneva'; font-size:184px;">&amp;</tspan><tspan x="581.55" y="0" class="st5 st8 st9">SAVE</tspan></text>
</svg>
